# AST/ASF file generated using VICON BodyLanguage
# -----------------------------------------------
:version 1.10
:name VICON
:units
  mass 1.0
  length 0.45
  angle deg
:documentation
   .ast/.asf automatically generated from VICON data using
   VICON BodyBuilder and BodyLanguage model FoxedUp or BRILLIANT.MOD
:root
   order TX TY TZ RX RY RZ
   axis XYZ
   position 0 0 0  
   orientation 0 0 0 
:bonedata
  begin
     id 1 
     name lhipjoint
     direction 0.693937 -0.600361 0.397515 
     length 2.37164 
     axis 0 0 0  XYZ
  end
  begin
     id 2 
     name lfemur
     direction 0.34202 -0.939693 0  
     length 6.18497  
     axis 0 0 20  XYZ
    dof rx ry rz
    limits (-160.0 20.0)
           (-70.0 70.0)
           (-60.0 70.0)
  end
  begin
     id 3 
     name ltibia
     direction 0.34202 -0.939693 0   
     length 6.91601   
     axis 0 0 20   XYZ
    dof rx
    limits (-10.0 170.0)
  end
  begin
     id 4 
     name lfoot
     direction 0.0978718 -0.2689 0.958182   
     length 1.81453   
     axis -90 7.62852e-016 20   XYZ
    dof rx rz
    limits (-45.0 90.0)
           (-70.0 20.0)
  end
  begin
     id 5 
     name ltoes
     direction 1.53569e-011 -4.21951e-011 1   
     length 0.912052   
     axis -90 7.62852e-016 20   XYZ
    dof rx
    limits (-90.0 20.0)
  end
  begin
     id 6 
     name rhipjoint
     direction -0.643996 -0.637876 0.422354   
     length 2.23216  
     axis 0 0 0  XYZ 
  end
  begin
     id 7 
     name rfemur
     direction -0.34202 -0.939693 0   
     length 6.15404   
     axis 0 0 -20   XYZ
    dof rx ry rz
    limits (-160.0 20.0)
           (-70.0 70.0)
           (-70.0 60.0)
  end
  begin
     id 8 
     name rtibia
     direction -0.34202 -0.939693 0   
     length 6.86744   
     axis 0 0 -20   XYZ
    dof rx
    limits (-10.0 170.0)
 end
 begin
     id 9 
     name rfoot
     direction -0.118701 -0.326127 0.937844   
     length 1.9243  
     axis -90 -7.62852e-016 -20   XYZ
    dof rx rz
    limits (-45.0 90.0)
           (-20.0 70.0)
  end
  begin
     id 10 
     name rtoes
     direction -1.5356e-011 -4.2181e-011 1   
     length 0.958865   
     axis -90 -7.62852e-016 -20   XYZ
    dof rx
    limits (-90.0 20.0)
  end
  begin
     id 11 
     name lowerback
     direction 0.0310826 0.968686 -0.246334   
     length 2.00021   
     axis 0 0 0   XYZ
    dof rx ry rz
    limits (-20.0 45.0)
           (-30.0 30.0)
           (-30.0 30.0)
  end
  begin
     id 12 
     name upperback
     direction -0.0152834 0.999474 -0.0286152   
     length 2.03728   
     axis 0 0 0   XYZ
    dof rx ry rz
    limits (-20.0 45.0)
           (-30.0 30.0)
           (-30.0 30.0)
  end
  begin
     id 13 
     name thorax
     direction -0.0323701 0.996236 0.0804149   
     length 2.16   
     axis 0 0 0   XYZ
    dof rx ry rz
    limits (-20.0 45.0)
           (-30.0 30.0)
           (-30.0 30.0)
  end
  begin
     id 14 
     name lowerneck
     direction 0.0307935 0.982251 0.185027   
     length 1.43558   
     axis 0 0 0   XYZ
    dof rx ry rz
    limits (-20.0 45.0)
           (-30.0 30.0)
           (-30.0 30.0)
  end
  begin
     id 15 
     name upperneck
     direction -0.0927153 0.994775 0.0427454   
     length 1.44603   
     axis 0 0 0   XYZ
    dof rx ry rz
    limits (-20.0 45.0)
           (-30.0 30.0)
           (-30.0 30.0)
  end
  begin
     id 16
     name head
     direction -0.0341265 0.999406 -0.00472033  
     length 1.45931  
     axis 0 0 0   XYZ
    dof rx ry rz
    limits (-20.0 45.0)
           (-30.0 30.0)
           (-30.0 30.0)
  end
  begin
     id 17 
     name lclavicle
     direction 0.820755 0.555306 -0.134151  
     length 2.66075  
     axis 0 0 0   XYZ
    dof ry rz
    limits (-20.0 10.0)
           (0.0 20.0)
  end
  begin
     id 18 
     name lhumerus
     direction 1 -4.48971e-011 5.24853e-027   
     length 5.0546   
     axis -180 -30 -90   XYZ
    dof rx ry rz
    limits (-60.0 90.0)
           (-90.0 90.0)
           (-90.0 90.0)
  end
  begin
     id 19
     name lradius
     direction 1 -4.48971e-011 2.76575e-028   
     length 3.39013   
     axis -180 -30 -90   XYZ
    dof rx
    limits (-10.0 170.0)
  end
  begin
     id 20
     name lwrist
     direction 1 -4.48939e-011 -2.27826e-027   
     length 1.69507   
     axis 2.17013e-015 90 90   XYZ
    dof ry
    limits (-180.0 0.0)
 end
  begin
     id 21 
     name lhand
     direction 1 -4.49009e-011 -4.55652e-027   
     length 0.572425   
     axis 2.90745e-015 90 90   XYZ
    dof rx rz
    limits (-90.0 90.0)
           (-45.0 45.0)
  end
  begin
     id 22 
     name lfingers
     direction 1 -4.48955e-011 -9.11303e-027   
     length 0.461504   
     axis 5.81489e-015 90 90   XYZ
    dof rx
    limits (0.0 90.0)
  end
  begin
     id 23
     name lthumb
     direction 0.707107 -6.34929e-011 0.707107   
     length 0.66263   
     axis -90 45 2.85299e-015   XYZ
    dof rx rz
    limits (-45.0 45.0)
           (-45.0 45.0)
  end
  begin
     id 24 
     name rclavicle
     direction -0.754477 0.632921 -0.173712   
     length 2.73081  
     axis 0 0 0   XYZ 
    dof ry rz
    limits (-10.0 20.0)
           (-20.0 0.0)
  end
  begin
     id 25 
     name rhumerus
     direction -1 -4.48969e-011 5.1496e-027  
     length 5.0701   
     axis -180 30 90   XYZ
    dof rx ry rz
    limits (-90.0 60.0)
           (-90.0 90.0)
           (-90.0 90.0)
  end
  begin
     id 26 
     name rradius
     direction -1 -4.48967e-011 -7.15624e-028   
     length 3.14957   
     axis -180 30 90   XYZ
    dof rx
    limits (-10.0 170.0)
  end
  begin
     id 27 
     name rwrist
     direction -1 -4.48938e-011 -2.27826e-027   
     length 1.57479   
     axis 2.17013e-015 -90 -90   XYZ
    dof ry
    limits (-180.0 0.0)
  end
  begin
     id 28
     name rhand
     direction -1 -4.49008e-011 -4.55652e-027   
     length 0.718191   
     axis 2.90745e-015 -90 -90   XYZ
    dof rx rz
    limits (-90.0 90.0)
           (-45.0 45.0)
  end
  begin
     id 29
     name rfingers
     direction -1 -4.48953e-011 -9.11303e-027   
     length 0.579024   
     axis 5.81489e-015 -90 -90   XYZ
    dof rx
    limits (0.0 90.0)
  end
  begin
     id 30
     name rthumb
     direction -0.707107 -6.34937e-011 0.707107   
     length 0.831366   
     axis -90 -45 -2.85299e-015   XYZ
    dof rx rz
    limits (-45.0 45.0)
           (-45.0 45.0)
  end
:hierarchy
  begin
    root lhipjoint rhipjoint lowerback
    lhipjoint lfemur
    lfemur ltibia
    ltibia lfoot
    lfoot ltoes
    rhipjoint rfemur
    rfemur rtibia
    rtibia rfoot
    rfoot rtoes
    lowerback upperback
    upperback thorax
    thorax lowerneck lclavicle rclavicle
    lowerneck upperneck
    upperneck head
    lclavicle lhumerus
    lhumerus lradius
    lradius lwrist
    lwrist lhand lthumb
    lhand lfingers
    rclavicle rhumerus
    rhumerus rradius
    rradius rwrist
    rwrist rhand rthumb
    rhand rfingers
  end

#!OML:ASF H:\Male1\Project 1\Capture day 1\Session 1\Male1.ASF
:FULLY-SPECIFIED
:DEGREES
74
root 6.86217 15.2464 2.75702 -21.7543 -80.1606 19.9382
lowerback 7.18006 1.01915 -5.53396
upperback 7.67504 0.886865 -2.01332
thorax 3.90694 0.110582 0.963632
lowerneck -5.90921 3.48366 6.90862
upperneck 16.6013 4.15571 -2.89668
head 6.21733 2.13498 -1.77073
rclavicle 1.72943e-014 -2.06736e-014
rhumerus -35.0302 -0.139928 -89.3787
rradius 38.6999
rwrist -23.4561
rhand -26.1902 6.79987
rfingers 7.12502
rthumb 0.36203 -23.1796
lclavicle 1.72943e-014 -2.06736e-014
lhumerus -11.5006 -32.5433 85.6316
lradius 32.4624
lwrist -1.36133
lhand -22.4069 11.8027
lfingers 7.12502
lthumb 4.01582 41.7446
rfemur -29.2359 8.70996 20.1048
rtibia 36.779
rfoot -27.1664 -28.6834
rtoes -20.6052
lfemur 8.08044 -8.64507 -30.2666
ltibia 17.739
lfoot -21.341 14.6235
ltoes -4.64645
75
root 6.55197 15.2102 2.81282 -22.8018 -79.8398 21.0205
lowerback 7.08854 0.938193 -5.71075
upperback 7.77703 0.780067 -2.04303
thorax 4.0728 0.0420465 1.03512
lowerneck -5.9009 3.49854 6.93408
upperneck 16.7186 4.17795 -2.94026
head 6.25568 2.1437 -1.78729
rclavicle -2.5842e-014 1.19271e-015
rhumerus -35.3298 -0.615058 -89.1607
rradius 38.8148
rwrist -23.8586
rhand -26.9692 6.92861
rfingers 7.12502
rthumb -0.390299 -23.0508
lclavicle -2.5842e-014 1.19271e-015
lhumerus -10.1594 -34.4067 85.0676
lradius 33.6494
lwrist -0.281841
lhand -21.7213 12.0136
lfingers 7.12502
lthumb 4.67787 41.942
rfemur -29.2266 10.8487 19.0406
rtibia 32.9955
rfoot -29.6277 -29.8951
rtoes -18.1197
lfemur 10.1097 -8.05999 -30.7307
ltibia 16.3173
lfoot -21.1089 14.5001
ltoes -4.92197
76
root 6.24292 15.1642 2.86643 -24.1557 -79.5039 22.3233
lowerback 7.04211 0.867158 -5.91728
upperback 7.94656 0.68107 -2.08701
thorax 4.28621 -0.0283705 1.10646
lowerneck -5.94307 3.5143 6.9629
upperneck 16.7883 4.20409 -3.01114
head 6.28845 2.15262 -1.81197
rclavicle -6.75868e-015 6.36111e-015
rhumerus -35.5213 -0.963207 -88.9691
rradius 38.876
rwrist -24.1685
rhand -27.5309 7.05718
rfingers 7.12502
rthumb -0.932892 -22.9205
lclavicle -6.75868e-015 6.36111e-015
lhumerus -8.75257 -35.7565 84.4745
lradius 34.684
lwrist 0.733886
lhand -21.3164 12.2862
lfingers 7.12502
lthumb 5.06889 42.2056
rfemur -29.1186 13.2879 17.8115
rtibia 30.0634
rfoot -32.0185 -30.9651
rtoes -15.2624
lfemur 11.9916 -7.4116 -31.1669
ltibia 15.3336
lfoot -20.8212 14.1943
ltoes -5.68401
77
root 5.93645 15.1138 2.91818 -25.4777 -79.1853 23.5338
lowerback 7.08018 0.798348 -6.09228
upperback 8.13635 0.578347 -2.12572
thorax 4.47535 -0.100452 1.16461
lowerneck -6.00097 3.53488 6.99689
upperneck 16.838 4.24322 -3.12543
head 6.31924 2.16496 -1.8501
rclavicle 3.77691e-015 -3.97569e-015
rhumerus -35.6522 -1.18254 -88.8012
rradius 38.8777
rwrist -24.3822
rhand -27.8546 7.13109
rfingers 7.12502
rthumb -1.24546 -22.845
lclavicle 3.77691e-015 -3.97569e-015
lhumerus -7.40076 -36.6114 83.952
lradius 35.5477
lwrist 1.57253
lhand -21.18 12.5266
lfingers 7.12502
lthumb 5.20051 42.4428
rfemur -28.9269 15.4364 16.7342
rtibia 28.097
rfoot -33.6639 -31.7248
rtoes -13.0876
lfemur 13.572 -6.70004 -31.4766
ltibia 14.9945
lfoot -20.4892 13.6378
ltoes -7.03666
78
root 5.63179 15.065 2.96899 -26.5707 -78.9011 24.4932
lowerback 7.14298 0.718073 -6.19989
upperback 8.34782 0.460235 -2.14475
thorax 4.6754 -0.17888 1.20548
lowerneck -6.0723 3.57021 7.02678
upperneck 16.861 4.31108 -3.2881
head 6.3462 2.18734 -1.90054
rclavicle 3.77691e-015 7.95139e-015
rhumerus -35.6952 -1.28171 -88.6461
rradius 38.8201
rwrist -24.49
rhand -27.9585 7.08986
rfingers 7.12502
rthumb -1.34586 -22.8856
lclavicle 3.77691e-015 7.95139e-015
lhumerus -6.14428 -36.9999 83.5481
lradius 36.2422
lwrist 2.21849
lhand -21.222 12.7408
lfingers 7.12502
lthumb 5.15997 42.658
rfemur -28.6324 16.6214 16.1213
rtibia 27.0861
rfoot -33.9411 -31.9323
rtoes -12.2618
lfemur 14.6883 -5.91598 -31.5982
ltibia 15.5228
lfoot -20.1337 12.7912
ltoes -8.93238
79
root 5.32811 15.0199 3.01946 -27.2882 -78.6572 25.097
lowerback 7.23694 0.62128 -6.19283
upperback 8.53161 0.321509 -2.14534
thorax 4.82943 -0.259745 1.20253
lowerneck -6.11331 3.61479 7.03265
upperneck 16.8791 4.3987 -3.46517
head 6.36721 2.21669 -1.9506
rclavicle -3.10104e-014 2.46493e-014
rhumerus -35.7175 -1.31809 -88.4942
rradius 38.724
rwrist -24.4876
rhand -27.871 6.90509
rfingers 7.12502
rthumb -1.26134 -23.0709
lclavicle -3.10104e-014 2.46493e-014
lhumerus -5.10668 -36.9909 83.3461
lradius 36.79
lwrist 2.71203
lhand -21.3923 12.907
lfingers 7.12502
lthumb 4.99552 42.8281
rfemur -28.2437 16.6528 16.0569
rtibia 26.8631
rfoot -32.7336 -31.6057
rtoes -12.8597
lfemur 15.166 -5.03703 -31.484
ltibia 17.1606
lfoot -19.8145 11.6104
ltoes -11.1266
80
root 5.02501 14.9809 3.06997 -27.4373 -78.4725 25.1749
lowerback 7.34769 0.501878 -6.02048
upperback 8.67519 0.157624 -2.11613
thorax 4.93057 -0.341431 1.14019
lowerneck -6.10907 3.66744 6.99644
upperneck 16.8989 4.50423 -3.63832
head 6.38084 2.25237 -1.99183
rclavicle 1.16289e-014 1.07344e-014
rhumerus -35.7238 -1.31738 -88.3367
rradius 38.587
rwrist -24.3973
rhand -27.6271 6.57268
rfingers 7.12502
rthumb -1.0258 -23.4046
lclavicle 1.16289e-014 1.07344e-014
lhumerus -4.3267 -36.6375 83.3734
lradius 37.2138
lwrist 3.1459
lhand -21.6359 12.9578
lfingers 7.12502
lthumb 4.76038 42.8844
rfemur -27.7876 15.7937 16.4428
rtibia 27.1929
rfoot -30.5231 -30.799
rtoes -13.9714
lfemur 14.9027 -4.03319 -31.0722
ltibia 20.0145
lfoot -19.4275 10.0842
ltoes -13.5115
81
root 4.72296 14.9489 3.1202 -26.7305 -78.3874 24.4483
lowerback 7.47409 0.359799 -5.61615
upperback 8.77931 -0.0285028 -2.03666
thorax 4.9778 -0.418908 1.00294
lowerneck -6.06518 3.72501 6.92103
upperneck 16.9251 4.62265 -3.80868
head 6.38936 2.29206 -2.0254
rclavicle -3.34952e-014 -2.38542e-014
rhumerus -35.6881 -1.28186 -88.1717
rradius 38.3944
rwrist -24.2607
rhand -27.257 6.09991
rfingers 7.12502
rthumb -0.668274 -23.8788
lclavicle -3.34952e-014 -2.38542e-014
lhumerus -3.78338 -36.0051 83.6095
lradius 37.5238
lwrist 3.61847
lhand -21.8434 12.9364
lfingers 7.12502
lthumb 4.55995 42.8673
rfemur -27.3103 14.4921 17.1398
rtibia 27.8197
rfoot -27.8167 -29.7197
rtoes -14.9722
lfemur 13.8663 -2.91672 -30.2929
ltibia 24.0557
lfoot -18.7716 8.22811
ltoes -15.8991
82
root 4.42334 14.9272 3.16907 -24.9067 -78.4395 22.66
lowerback 7.64931 0.199562 -4.94367
upperback 8.83229 -0.231343 -1.88326
thorax 4.9379 -0.487281 0.79566
lowerneck -6.00344 3.78948 6.8309
upperneck 16.982 4.75621 -4.00011
head 6.40556 2.33628 -2.06249
rclavicle 1.70955e-014 1.41137e-014
rhumerus -35.6069 -1.19192 -87.9941
rradius 38.1535
rwrist -24.109
rhand -26.7726 5.50175
rfingers 7.12502
rthumb -0.200471 -24.4779
lclavicle 1.70955e-014 1.41137e-014
lhumerus -3.44979 -35.1453 84.0289
lradius 37.7119
lwrist 4.18596
lhand -21.9404 12.8484
lfingers 7.12502
lthumb 4.46628 42.7813
rfemur -26.8434 13.0534 18.0856
rtibia 28.5444
rfoot -25.0537 -28.5052
rtoes -15.2658
lfemur 12.0939 -1.72966 -29.1015
ltibia 29.1036
lfoot -17.5363 6.1128
ltoes -18.2729
83
root 4.12817 14.9157 3.21477 -21.811 -78.6462 19.6301
lowerback 7.92666 0.037069 -4.02476
upperback 8.83814 -0.432154 -1.63538
thorax 4.78479 -0.540535 0.551552
lowerneck -5.94113 3.8606 6.76371
upperneck 17.0726 4.90479 -4.24569
head 6.43528 2.38462 -2.1196
rclavicle 2.51463e-014 -2.34566e-014
rhumerus -35.4833 -1.02634 -87.7972
rradius 37.9115
rwrist -23.9704
rhand -26.1793 4.77849
rfingers 7.12502
rthumb 0.37255 -25.2009
lclavicle 2.51463e-014 -2.34566e-014
lhumerus -3.26852 -34.1111 84.5869
lradius 37.7654
lwrist 4.85691
lhand -21.8523 12.7057
lfingers 7.12502
lthumb 4.55141 42.6368
rfemur -26.3611 11.6241 19.2799
rtibia 29.2197
rfoot -22.4958 -27.2122
rtoes -14.6843
lfemur 9.68511 -0.532114 -27.51
ltibia 34.9099
lfoot -15.5614 3.85855
ltoes -20.3461
84
root 3.8396 14.9131 3.25614 -17.4843 -78.9708 15.3797
lowerback 8.30811 -0.105398 -2.93779
upperback 8.83165 -0.600232 -1.29919
thorax 4.55644 -0.571764 0.30588
lowerneck -5.90313 3.93097 6.7666
upperneck 17.1673 5.05549 -4.56639
head 6.47467 2.43232 -2.21183
rclavicle 8.74653e-015 5.1684e-015
rhumerus -35.2953 -0.790474 -87.5823
rradius 37.7495
rwrist -23.8748
rhand -25.4686 3.89198
rfingers 7.12502
rthumb 1.059 -26.0851
lclavicle 8.74653e-015 5.1684e-015
lhumerus -3.12486 -32.9794 85.2009
lradius 37.6822
lwrist 5.58826
lhand -21.487 12.5252
lfingers 7.12502
lthumb 4.90416 42.4485
rfemur -25.8443 10.2212 20.7009
rtibia 29.7865
rfoot -20.2455 -25.8624
rtoes -13.4469
lfemur 6.77201 0.593884 -25.6304
ltibia 41.1678
lfoot -13.0016 1.71147
ltoes -21.8426
85
root 3.55932 14.9164 3.29221 -12.0478 -79.3431 10.0149
lowerback 8.78292 -0.209063 -1.77175
upperback 8.84531 -0.709761 -0.897975
thorax 4.29711 -0.575438 0.0818089
lowerneck -5.89431 3.98853 6.86048
upperneck 17.2252 5.18595 -4.94137
head 6.51068 2.47194 -2.33763
rclavicle 1.2921e-015 5.1684e-015
rhumerus -35.0377 -0.499193 -87.3582
rradius 37.7594
rwrist -23.8456
rhand -24.6302 2.83856
rfingers 7.12502
rthumb 1.86869 -27.133
lclavicle 1.2921e-015 5.1684e-015
lhumerus -2.92422 -31.843 85.7981
lradius 37.477
lwrist 6.31746
lhand -20.7547 12.3307
lfingers 7.12502
lthumb 5.61117 42.2364
rfemur -25.261 8.8615 22.3035
rtibia 30.2314
rfoot -18.3476 -24.5291
rtoes -12.1622
lfemur 3.48698 1.56438 -23.61
ltibia 47.5659
lfoot -10.342 0.0179293
ltoes -23.0191
86
root 3.28814 14.9234 3.32375 -6.28094 -79.6952 4.30461
lowerback 9.31538 -0.258358 -0.697623
upperback 8.92681 -0.746487 -0.492031
thorax 4.08216 -0.553771 -0.0902346
lowerneck -5.92086 4.0306 7.04027
upperneck 17.1895 5.28474 -5.32477
head 6.52435 2.50196 -2.48209
rclavicle 2.44008e-014 -8.94531e-016
rhumerus -34.6791 -0.143985 -87.149
rradius 38.0072
rwrist -23.8969
rhand -23.6963 1.69468
rfingers 7.12502
rthumb 2.7707 -28.2671
lclavicle 2.44008e-014 -8.94531e-016
lhumerus -2.56587 -30.7736 86.297
lradius 37.1742
lwrist 7.00525
lhand -19.6296 12.1305
lfingers 7.12502
lthumb 6.69738 42.0046
rfemur -24.6017 7.59411 23.9084
rtibia 30.5962
rfoot -16.8728 -23.2265
rtoes -11.1197
lfemur -0.0168813 2.31538 -21.7166
ltibia 53.7758
lfoot -8.1413 -0.899123
ltoes -23.8018
87
root 3.02398 14.9341 3.35172 -0.825473 -80.0616 -1.11821
lowerback 9.85817 -0.233542 0.175709
upperback 9.10491 -0.692881 -0.131102
thorax 3.9707 -0.501344 -0.203462
lowerneck -5.95836 4.05546 7.27502
upperneck 17.0202 5.34427 -5.66313
head 6.49586 2.52166 -2.62367
rclavicle 2.83517e-014 -6.36111e-015
rhumerus -34.218 0.281737 -86.9863
rradius 38.5229
rwrist -24.0104
rhand -22.7471 0.588048
rfingers 7.12502
rthumb 3.68732 -29.3598
lclavicle 2.83517e-014 -6.36111e-015
lhumerus -2.01786 -29.8207 86.6489
lradius 36.8134
lwrist 7.62764
lhand -18.147 11.963
lfingers 7.12502
lthumb 8.12847 41.7867
rfemur -23.867 6.56672 25.379
rtibia 30.9316
rfoot -15.8702 -22.0759
rtoes -10.8415
lfemur -3.58289 2.84407 -20.1278
ltibia 59.5026
lfoot -6.81888 -0.853921
ltoes -24.0945
